<?xml version="1.0" encoding="UTF-8"?>
<svg id="Layer_2" data-name="Layer 2" xmlns="http://www.w3.org/2000/svg" viewBox="0 0 1481.03 653.14">
  <defs>
    <style>
      .cls-1 {
        fill: #000;
      }

      .cls-1, .cls-2 {
        stroke-width: 0px;
      }

      .cls-2, .cls-3 {
        fill: #fff;
      }

      .cls-3 {
        font-family: VT323-Regular, VT323;
        font-size: 150.88px;
        stroke: #fff;
        stroke-miterlimit: 10;
        stroke-width: 4px;
      }
    </style>
  </defs>
  <g id="Layer_1-2" data-name="Layer 1">
    <g>
      <rect class="cls-1" width="1481.03" height="653.14"/>
      <g>
        <g>
          <path class="cls-2" d="M1287.02,398.91c-22.59,19.68-46.55,36.38-72.02,48.97-33.82,16.73-71.17,25.07-108.9,25.07h-154.74l-18.78,10.73h-199.98l-37.33,28.6c-13.93-75.94-14.07-151.53,0-226.76l34.28,26.27,3.05,2.34h199.98l18.67,10.67.11.06h147.11c8.06,0,16.11.39,24.11,1.16,1.78.17,3.56.36,5.34.57,17.23,2.02,34.23,5.86,50.69,11.51,39.83,13.7,75.34,34.57,108.41,60.81Z"/>
          <path class="cls-1" d="M956.17,441.91c-3.17-51.55-4.59-89.2-4.93-117.11l.11.06h9.38c-5.5,51.12-4.86,107.92-4.56,117.05Z"/>
          <path class="cls-1" d="M734.29,461.86c-4.64-75.46-5.53-121.15-4.75-150.06l3.05,2.34h10.54c-10.05,56.13-9.2,136.69-8.83,147.73Z"/>
          <path class="cls-1" d="M1126.5,403.67c-1.87-30.45-3.13-56.04-3.92-77.65,1.78.17,3.56.36,5.34.57-2.05,37.39-1.64,70.31-1.41,77.08Z"/>
        </g>
        <path class="cls-2" d="M678.9,324.92c-6.78,50.47-7.2,101.11-1.4,151.9-108.51,13.56-369.47,43.07-380.26,43.09-13.4.02-14.2,2.43-20.51-.55-6.32-2.98,260.27-80.41,260.27-80.41l-120.05-4.99s132.07-23.99,127.42-24.64c-4.65-.64-350.36-18.83-350.36-18.83l362.33-43.09s-233.62-44.33-233.36-45.13c.22-.68,272.12,17.14,355.92,22.65Z"/>
      </g>
      <text class="cls-3" transform="translate(257.69 219.66)"><tspan x="0" y="0">BLAST BULLETS 2D</tspan></text>
      <text/>
    </g>
  </g>
</svg>